<svg id="visual" viewBox="0 0 900 200" width="900" height="200" xmlns="http://www.w3.org/2000/svg" xmlns:xlink="http://www.w3.org/1999/xlink" version="1.1"><rect x="0" y="0" width="900" height="200" fill="#668a7f"></rect><path d="M0 71L25 78.2C50 85.3 100 99.7 150 106.8C200 114 250 114 300 105C350 96 400 78 450 73.3C500 68.7 550 77.3 600 80.8C650 84.3 700 82.7 750 84.3C800 86 850 91 875 93.5L900 96L900 201L875 201C850 201 800 201 750 201C700 201 650 201 600 201C550 201 500 201 450 201C400 201 350 201 300 201C250 201 200 201 150 201C100 201 50 201 25 201L0 201Z" fill="#668a7f"></path><path d="M0 130L25 123.3C50 116.7 100 103.3 150 97C200 90.7 250 91.3 300 92.8C350 94.3 400 96.7 450 100.8C500 105 550 111 600 115.3C650 119.7 700 122.3 750 120.8C800 119.3 850 113.7 875 110.8L900 108L900 201L875 201C850 201 800 201 750 201C700 201 650 201 600 201C550 201 500 201 450 201C400 201 350 201 300 201C250 201 200 201 150 201C100 201 50 201 25 201L0 201Z" fill="#588075"></path><path d="M0 106L25 105C50 104 100 102 150 99.3C200 96.7 250 93.3 300 98.7C350 104 400 118 450 119C500 120 550 108 600 103C650 98 700 100 750 102.3C800 104.7 850 107.3 875 108.7L900 110L900 201L875 201C850 201 800 201 750 201C700 201 650 201 600 201C550 201 500 201 450 201C400 201 350 201 300 201C250 201 200 201 150 201C100 201 50 201 25 201L0 201Z" fill="#49756b"></path><path d="M0 130L25 127.8C50 125.7 100 121.3 150 123.2C200 125 250 133 300 131.8C350 130.7 400 120.3 450 121.5C500 122.7 550 135.3 600 140.2C650 145 700 142 750 140.8C800 139.7 850 140.3 875 140.7L900 141L900 201L875 201C850 201 800 201 750 201C700 201 650 201 600 201C550 201 500 201 450 201C400 201 350 201 300 201C250 201 200 201 150 201C100 201 50 201 25 201L0 201Z" fill="#3b6b61"></path><path d="M0 150L25 152.7C50 155.3 100 160.7 150 164.2C200 167.7 250 169.3 300 165.3C350 161.3 400 151.7 450 149.7C500 147.7 550 153.3 600 157.8C650 162.3 700 165.7 750 161.8C800 158 850 147 875 141.5L900 136L900 201L875 201C850 201 800 201 750 201C700 201 650 201 600 201C550 201 500 201 450 201C400 201 350 201 300 201C250 201 200 201 150 201C100 201 50 201 25 201L0 201Z" fill="#2b6158"></path><path d="M0 173L25 171C50 169 100 165 150 165C200 165 250 169 300 172.8C350 176.7 400 180.3 450 178.8C500 177.3 550 170.7 600 169.3C650 168 700 172 750 171.3C800 170.7 850 165.3 875 162.7L900 160L900 201L875 201C850 201 800 201 750 201C700 201 650 201 600 201C550 201 500 201 450 201C400 201 350 201 300 201C250 201 200 201 150 201C100 201 50 201 25 201L0 201Z" fill="#19574f"></path></svg>