<svg id="visual" viewBox="0 0 900 300" width="900" height="300" xmlns="http://www.w3.org/2000/svg" xmlns:xlink="http://www.w3.org/1999/xlink" version="1.1"><rect x="0" y="0" width="900" height="300" fill="#19574f"></rect><path d="M0 208L21.5 202.7C43 197.3 86 186.7 128.8 184.8C171.7 183 214.3 190 257.2 194C300 198 343 199 385.8 199.5C428.7 200 471.3 200 514.2 196.3C557 192.7 600 185.3 642.8 186.2C685.7 187 728.3 196 771.2 203.5C814 211 857 217 878.5 220L900 223L900 301L878.5 301C857 301 814 301 771.2 301C728.3 301 685.7 301 642.8 301C600 301 557 301 514.2 301C471.3 301 428.7 301 385.8 301C343 301 300 301 257.2 301C214.3 301 171.7 301 128.8 301C86 301 43 301 21.5 301L0 301Z" fill="#90aaa2"></path><path d="M0 225L21.5 222C43 219 86 213 128.8 213.2C171.7 213.3 214.3 219.7 257.2 219.8C300 220 343 214 385.8 212.5C428.7 211 471.3 214 514.2 217.5C557 221 600 225 642.8 224.5C685.7 224 728.3 219 771.2 216.8C814 214.7 857 215.3 878.5 215.7L900 216L900 301L878.5 301C857 301 814 301 771.2 301C728.3 301 685.7 301 642.8 301C600 301 557 301 514.2 301C471.3 301 428.7 301 385.8 301C343 301 300 301 257.2 301C214.3 301 171.7 301 128.8 301C86 301 43 301 21.5 301L0 301Z" fill="#7b9a90"></path><path d="M0 225L21.5 226.8C43 228.7 86 232.3 128.8 235.2C171.7 238 214.3 240 257.2 237.5C300 235 343 228 385.8 229.8C428.7 231.7 471.3 242.3 514.2 242C557 241.7 600 230.3 642.8 229C685.7 227.7 728.3 236.3 771.2 239.5C814 242.7 857 240.3 878.5 239.2L900 238L900 301L878.5 301C857 301 814 301 771.2 301C728.3 301 685.7 301 642.8 301C600 301 557 301 514.2 301C471.3 301 428.7 301 385.8 301C343 301 300 301 257.2 301C214.3 301 171.7 301 128.8 301C86 301 43 301 21.5 301L0 301Z" fill="#668a7f"></path><path d="M0 257L21.5 258.7C43 260.3 86 263.7 128.8 264.3C171.7 265 214.3 263 257.2 258.7C300 254.3 343 247.7 385.8 246.7C428.7 245.7 471.3 250.3 514.2 254.5C557 258.7 600 262.3 642.8 263.7C685.7 265 728.3 264 771.2 260C814 256 857 249 878.5 245.5L900 242L900 301L878.5 301C857 301 814 301 771.2 301C728.3 301 685.7 301 642.8 301C600 301 557 301 514.2 301C471.3 301 428.7 301 385.8 301C343 301 300 301 257.2 301C214.3 301 171.7 301 128.8 301C86 301 43 301 21.5 301L0 301Z" fill="#58776e"></path><path d="M0 286L21.5 284.2C43 282.3 86 278.7 128.8 276.2C171.7 273.7 214.3 272.3 257.2 270.8C300 269.3 343 267.7 385.8 268.8C428.7 270 471.3 274 514.2 276.8C557 279.7 600 281.3 642.8 280.2C685.7 279 728.3 275 771.2 272C814 269 857 267 878.5 266L900 265L900 301L878.5 301C857 301 814 301 771.2 301C728.3 301 685.7 301 642.8 301C600 301 557 301 514.2 301C471.3 301 428.7 301 385.8 301C343 301 300 301 257.2 301C214.3 301 171.7 301 128.8 301C86 301 43 301 21.5 301L0 301Z" fill="#4b655d"></path></svg>