<svg id="visual" viewBox="0 0 900 200" width="900" height="200" xmlns="http://www.w3.org/2000/svg" xmlns:xlink="http://www.w3.org/1999/xlink" version="1.1"><rect x="0" y="0" width="900" height="200" fill="#668a7f"></rect><path d="M0 156L25 156.2C50 156.3 100 156.7 150 150.8C200 145 250 133 300 132.8C350 132.7 400 144.3 450 149.7C500 155 550 154 600 150.5C650 147 700 141 750 143.8C800 146.7 850 158.3 875 164.2L900 170L900 0L875 0C850 0 800 0 750 0C700 0 650 0 600 0C550 0 500 0 450 0C400 0 350 0 300 0C250 0 200 0 150 0C100 0 50 0 25 0L0 0Z" fill="#668a7f"></path><path d="M0 117L25 115.3C50 113.7 100 110.3 150 110.7C200 111 250 115 300 118.2C350 121.3 400 123.7 450 123.5C500 123.3 550 120.7 600 115.5C650 110.3 700 102.7 750 103C800 103.3 850 111.7 875 115.8L900 120L900 0L875 0C850 0 800 0 750 0C700 0 650 0 600 0C550 0 500 0 450 0C400 0 350 0 300 0C250 0 200 0 150 0C100 0 50 0 25 0L0 0Z" fill="#547d72"></path><path d="M0 68L25 72C50 76 100 84 150 87.8C200 91.7 250 91.3 300 89.7C350 88 400 85 450 85.3C500 85.7 550 89.3 600 87.5C650 85.7 700 78.3 750 75.5C800 72.7 850 74.3 875 75.2L900 76L900 0L875 0C850 0 800 0 750 0C700 0 650 0 600 0C550 0 500 0 450 0C400 0 350 0 300 0C250 0 200 0 150 0C100 0 50 0 25 0L0 0Z" fill="#427066"></path><path d="M0 54L25 55.5C50 57 100 60 150 61.8C200 63.7 250 64.3 300 66.7C350 69 400 73 450 72.2C500 71.3 550 65.7 600 60.7C650 55.7 700 51.3 750 52.2C800 53 850 59 875 62L900 65L900 0L875 0C850 0 800 0 750 0C700 0 650 0 600 0C550 0 500 0 450 0C400 0 350 0 300 0C250 0 200 0 150 0C100 0 50 0 25 0L0 0Z" fill="#2f635a"></path><path d="M0 19L25 20.7C50 22.3 100 25.7 150 30.3C200 35 250 41 300 43.8C350 46.7 400 46.3 450 41.8C500 37.3 550 28.7 600 27.5C650 26.3 700 32.7 750 33.7C800 34.7 850 30.3 875 28.2L900 26L900 0L875 0C850 0 800 0 750 0C700 0 650 0 600 0C550 0 500 0 450 0C400 0 350 0 300 0C250 0 200 0 150 0C100 0 50 0 25 0L0 0Z" fill="#19574f"></path></svg>