<svg id="visual" viewBox="0 0 960 540" width="960" height="540" xmlns="http://www.w3.org/2000/svg" xmlns:xlink="http://www.w3.org/1999/xlink" version="1.1"><rect x="0" y="0" width="960" height="540" fill="#154942"></rect><path d="M0 355L40 333C80 311 160 267 240 231.7C320 196.3 400 169.7 480 200C560 230.3 640 317.7 720 330.5C800 343.3 880 281.7 920 250.8L960 220L960 541L920 541C880 541 800 541 720 541C640 541 560 541 480 541C400 541 320 541 240 541C160 541 80 541 40 541L0 541Z" fill="#19574f" stroke-linecap="round" stroke-linejoin="miter"></path></svg>